<svg xmlns="http://www.w3.org/2000/svg" 
    xmlns:xlink="http://www.w3.org/1999/xlink" version="1.1" viewBox="0 0 595.3 841.9">
    <polygon id="XMLID_1345_" class="st10" points="343.8,280.2 341,273.4 341,262.2 342.4,267.3 " style="box-sizing: border-box; fill: rgb(36, 19, 33);"></polygon>
    <path id="XMLID_1353_" class="st5" d="M291.5,207.8c-2.8,2.7-5.7,0-5.7,0c-1.6,5.1-8.9,25.9-8.9,25.9l2.3,28.9h18.9l2.3-28.9C300.4,233.7,293,213,291.5,207.8z M291,222.7l-2.5,0h-0.1l-2.2,0l-3.6,5.3l2.2-6.8l3.7-4.3h0.4l3.7,4.3l2.2,6.8L291,222.7z" style="box-sizing: border-box; fill: rgb(251, 241, 165);"></path>
    <polygon id="XMLID_1324_" class="st11" points="311,247.9 298.1,262.7 300.4,233.7 " style="box-sizing: border-box; fill: rgb(70, 45, 68);"></polygon>
    <path id="XMLID_1326_" class="st11" d="M291.5,207.8c-2.8,2.7-5.7,0-5.7,0c0.1-0.3,0.2-0.5,0.2-0.7c0.9-3.1,2.6-3.1,2.6-3.1l0.2,0c0,0,1.6-0.1,2.4,3.1C291.3,207.3,291.4,207.6,291.5,207.8z" style="box-sizing: border-box; fill: rgb(70, 45, 68);"></path>
    <polygon id="XMLID_1343_" class="st11" points="279.2,262.7 266.3,247.9 276.9,233.7 " style="box-sizing: border-box; fill: rgb(70, 45, 68);"></polygon>
    <polygon id="XMLID_1325_" class="st8" points="341,262.2 341,273.4 298.1,262.7 311,247.9 " style="box-sizing: border-box; fill: rgb(26, 14, 22);"></polygon>
    <polygon id="XMLID_1341_" class="st8" points="279.2,262.7 236.3,273.4 236.3,262.2 266.3,247.9 " style="box-sizing: border-box; fill: rgb(26, 14, 22);"></polygon>
    <polygon id="XMLID_1344_" class="st10" points="236.3,262.2 236.3,273.4 233.5,280.2 234.9,267.3 " style="box-sizing: border-box; fill: rgb(36, 19, 33);"></polygon>
    <path id="XMLID_1342_" class="st5" d="M298.1,262.7c0,0-1.9,4.7-2.2,5.5c-1.1,2.8-1.8,2.2-7.1,2.4h-0.3c-5.3-0.2-6.1,0.4-7.2-2.4c-0.3-0.8-2.2-5.5-2.2-5.5H298.1z" style="box-sizing: border-box; fill: rgb(251, 241, 165);"></path>
    <polygon id="XMLID_1327_" class="st8" points="294.7,228 291,222.7 288.5,222.7 288.4,222.7 286.2,222.7 282.6,228 284.8,221.2 288.4,217 288.8,217 292.5,221.2 " style="box-sizing: border-box; fill: rgb(26, 14, 22);"></polygon>
    <line id="XMLID_1318_" class="st12" x1="291.5" y1="207.8" x2="291.5" y2="207.8" style="box-sizing: border-box; fill: none; stroke: rgb(255, 230, 2); stroke-miterlimit: 10;"></line>
    <g id="XMLID_1311_" style="box-sizing: border-box;">
        <path id="XMLID_1379_" class="st13" d="M298.9,267.1c-0.3-1.7-4.4-3.8-4.9-4.1v0c0-1.4,0-3.4,0.1-5.6c0.5,0.7,3.4,4.6,4,5.6C298.6,264,298.9,267.1,298.9,267.1z" style="box-sizing: border-box; fill: rgb(26, 15, 19);"></path>
        <path id="XMLID_1372_" class="st0" d="M294,257.4c0,2.2,0,4.2-0.1,5.6v0c0,1.1,0,1.8,0,1.8h-5.2l-0.2,0h-5.2c0,0,0-0.7,0-1.8c0,0,0,0,0,0c0-1.4,0-3.4,0-5.6c0-4.2,0-9.3,0.1-12.2h10.7C294,248.1,294,253.2,294,257.4z" style="box-sizing: border-box; fill: rgb(62, 32, 53);"></path>
        <path id="XMLID_1373_" class="st13" d="M293.9,245.2h-10.6c0-0.1,0-0.2,0-0.3c0.2-6.2,5.3-5.9,5.3-5.9l0.2,0c0,0,4.9-0.5,5.1,5.9C293.9,245,293.9,245.1,293.9,245.2z" style="box-sizing: border-box; fill: rgb(26, 15, 19);"></path>
        <path id="XMLID_1377_" class="st13" d="M283.3,263C283.3,263,283.3,263,283.3,263c-0.5,0.3-4.6,2.4-4.9,4.1c0,0,0.2-3.1,0.9-4.1c0.6-0.9,3.5-4.9,4-5.6C283.3,259.6,283.3,261.6,283.3,263z" style="box-sizing: border-box; fill: rgb(26, 15, 19);"></path>
        <path id="XMLID_1299_" class="st12" d="M283.3,257.4" style="box-sizing: border-box; fill: none; stroke: rgb(255, 230, 2); stroke-miterlimit: 10;"></path>
        <path id="XMLID_1308_" class="st12" d="M294,245.2" style="box-sizing: border-box; fill: none; stroke: rgb(255, 230, 2); stroke-miterlimit: 10;"></path>
        <path id="XMLID_1302_" class="st12" d="M283.3,245.2" style="box-sizing: border-box; fill: none; stroke: rgb(255, 230, 2); stroke-miterlimit: 10;"></path>
        <polygon id="XMLID_1375_" class="st14" points="293,264.8 292.5,265.7 288.6,265.7 288.4,265.7 284.7,265.7 284.2,264.8 288.5,264.8 288.7,264.8 " style="box-sizing: border-box; fill: rgb(26, 14, 21);"></polygon>
    </g>
</svg>